<svg width="30" height="30" viewBox="0 0 30 30" fill="none" xmlns="http://www.w3.org/2000/svg"><g clip-path="url(#dc-AdfoxTypeLogoOnly-a)"><mask id="dc-AdfoxTypeLogoOnly-b" style="mask-type:alpha" maskUnits="userSpaceOnUse" x="0" y="0" width="30" height="30"><path d="M15 30c8.284 0 15-6.716 15-15 0-8.284-6.716-15-15-15C6.716 0 0 6.716 0 15c0 8.284 6.716 15 15 15Z" fill="#fff"/></mask><g mask="url(#dc-AdfoxTypeLogoOnly-b)"><mask id="dc-AdfoxTypeLogoOnly-c" style="mask-type:luminance" maskUnits="userSpaceOnUse" x="0" y="-1" width="30" height="31"><path d="M30-.001H0v30h30v-30Z" fill="#fff"/></mask><g mask="url(#dc-AdfoxTypeLogoOnly-c)"><path d="M36.452-4.075H-2.602V34.98h39.054V-4.075Z" fill="url(#dc-AdfoxTypeLogoOnly-d)"/><path fill-rule="evenodd" clip-rule="evenodd" d="M10.434 13.249c2.56 0 3.692-1.625 12.35-9.348.217 1.348.592 6.905.592 12.348 0 3.17.15 4.722-2.286 7.355S10.435 34.33 10.435 34.33l-.018-.018-.017.018L-.146 23.686c-3.379-3.41-4.405-4.94-1.804-19.785 8.576 7.723 9.826 9.348 12.384 9.348Z" fill="url(#dc-AdfoxTypeLogoOnly-e)"/><path fill-rule="evenodd" clip-rule="evenodd" d="m3.286 20.75 7.131-5.995 6.774 5.732.736.61c.732.61 2.804 1.83 4.633.488 0 .979-8.435 9.039-8.435 9.039l.01-.054a525.076 525.076 0 0 1-3.718 3.743c-1.973-1.965-3.904-3.913-5.84-5.866-1.575-1.588-3.152-3.179-4.757-4.784l.018-.015c-.733-.793-1.364-1.585-1.541-2.116 1.829 1.342 3.902.122 4.634-.488l.355-.294Z" fill="url(#dc-AdfoxTypeLogoOnly-f)"/><path d="M36.452-4.075H-2.602V34.98h39.054V-4.075Z" fill="url(#dc-AdfoxTypeLogoOnly-g)"/><path d="M36.452-4.075H-2.602V34.98h39.054V-4.075Z" fill="url(#dc-AdfoxTypeLogoOnly-h)"/><path fill-rule="evenodd" clip-rule="evenodd" d="M10.434 13.249c2.56 0 3.692-1.625 12.35-9.348.217 1.348.592 6.905.592 12.348 0 3.17.15 4.722-2.286 7.355S10.435 34.33 10.435 34.33l-.018-.018-.017.018L-.146 23.686c-3.379-3.41-4.405-4.94-1.804-19.785 8.576 7.723 9.826 9.348 12.384 9.348Z" fill="url(#dc-AdfoxTypeLogoOnly-i)"/><path fill-rule="evenodd" clip-rule="evenodd" d="m3.286 20.75 7.131-5.995 6.774 5.732.736.61c.732.61 2.804 1.83 4.633.488 0 .979-8.435 9.039-8.435 9.039l.01-.054a525.076 525.076 0 0 1-3.718 3.743c-1.973-1.965-3.904-3.913-5.84-5.866-1.575-1.588-3.152-3.179-4.757-4.784l.018-.015c-.733-.793-1.364-1.585-1.541-2.116 1.829 1.342 3.902.122 4.634-.488l.355-.294Z" fill="url(#dc-AdfoxTypeLogoOnly-j)"/></g></g></g><defs><linearGradient id="dc-AdfoxTypeLogoOnly-d" x1="3.292" y1=".731" x2="37.438" y2="49.267" gradientUnits="userSpaceOnUse"><stop stop-color="#3E3BA0"/><stop offset="1" stop-color="#1E8AFF"/></linearGradient><linearGradient id="dc-AdfoxTypeLogoOnly-e" x1="17.376" y1="41.249" x2="14.054" y2="7.149" gradientUnits="userSpaceOnUse"><stop stop-color="#3E3BA0"/><stop offset=".469" stop-color="#498BFF"/><stop offset=".849" stop-color="#00B2FF"/></linearGradient><linearGradient id="dc-AdfoxTypeLogoOnly-f" x1="7.317" y1="15.365" x2="26.625" y2="28.874" gradientUnits="userSpaceOnUse"><stop stop-color="#FFEC42"/><stop offset="1" stop-color="#FFB800"/></linearGradient><linearGradient id="dc-AdfoxTypeLogoOnly-g" x1="51.098" y1="29.935" x2="-74.363" y2="-85.6" gradientUnits="userSpaceOnUse"><stop stop-color="#3E3BA0"/><stop offset=".469" stop-color="#498BFF"/><stop offset=".849" stop-color="#00B2FF"/></linearGradient><linearGradient id="dc-AdfoxTypeLogoOnly-h" x1="24.249" y1="40.874" x2="-36.876" y2="-27.001" gradientUnits="userSpaceOnUse"><stop stop-color="#4643B9"/><stop offset="1" stop-color="#1B202B"/></linearGradient><linearGradient id="dc-AdfoxTypeLogoOnly-i" x1="17.625" y1="21.874" x2="22.777" y2="5.857" gradientUnits="userSpaceOnUse"><stop stop-color="#515BFF"/><stop offset="1" stop-color="#498BFF"/></linearGradient><linearGradient id="dc-AdfoxTypeLogoOnly-j" x1="7.317" y1="15.365" x2="26.625" y2="28.874" gradientUnits="userSpaceOnUse"><stop stop-color="#FFEC42"/><stop offset="1" stop-color="#FFB800"/></linearGradient><clipPath id="dc-AdfoxTypeLogoOnly-a"><path fill="#fff" d="M0 0h30v30H0z"/></clipPath></defs></svg>