<svg width="240" height="70" viewBox="0 0 240 70" fill="none" xmlns="http://www.w3.org/2000/svg"><mask id="dc-SidebarServiceRsyaNewYearTypeDesktopBadgeNo-a" style="mask-type:alpha" maskUnits="userSpaceOnUse" x="24" y="23" width="24" height="24"><path d="M36 47c6.627 0 12-5.373 12-12s-5.373-12-12-12-12 5.373-12 12 5.373 12 12 12Z" fill="#fff"/></mask><g mask="url(#dc-SidebarServiceRsyaNewYearTypeDesktopBadgeNo-a)"><path d="M48.08 22.95H24.03V47h24.05V22.95Z" fill="url(#dc-SidebarServiceRsyaNewYearTypeDesktopBadgeNo-b)"/><mask id="dc-SidebarServiceRsyaNewYearTypeDesktopBadgeNo-c" style="mask-type:luminance" maskUnits="userSpaceOnUse" x="24" y="22" width="24" height="25"><path d="M48 23H24v24h24V23Z" fill="#fff"/></mask><g mask="url(#dc-SidebarServiceRsyaNewYearTypeDesktopBadgeNo-c)"><path d="M47.998 23h-24v24h24V23Z" fill="url(#dc-SidebarServiceRsyaNewYearTypeDesktopBadgeNo-d)"/><path d="M47.998 23h-24v24h24V23Z" fill="url(#dc-SidebarServiceRsyaNewYearTypeDesktopBadgeNo-e)"/><path d="M52.853 29.155a1.97 1.97 0 0 0-1.208-3.75l-29.49 9.506a1.97 1.97 0 0 0 1.209 3.75l29.49-9.506Z" fill="url(#dc-SidebarServiceRsyaNewYearTypeDesktopBadgeNo-f)"/><path d="M41.214 18.411a1.97 1.97 0 0 0-2.71.643L20.967 47.49a1.97 1.97 0 1 0 3.353 2.068l17.535-28.436a1.97 1.97 0 0 0-.642-2.71Z" fill="url(#dc-SidebarServiceRsyaNewYearTypeDesktopBadgeNo-g)"/><path d="M17.6 40.891a1.97 1.97 0 0 0 1.749 2.169l26.998 2.898a1.97 1.97 0 0 0 .42-3.917L19.77 39.143a1.97 1.97 0 0 0-2.168 1.748Z" fill="url(#dc-SidebarServiceRsyaNewYearTypeDesktopBadgeNo-h)"/><path d="M41.568 49.59a1.97 1.97 0 0 0 1.97-1.97V19.57a1.97 1.97 0 0 0-3.94 0v28.05a1.97 1.97 0 0 0 1.97 1.97Z" fill="url(#dc-SidebarServiceRsyaNewYearTypeDesktopBadgeNo-i)"/><path d="M13.097 21.434a1.97 1.97 0 0 0 .536 2.734L48.793 47.8a1.97 1.97 0 0 0 2.198-3.27L15.83 20.899a1.97 1.97 0 0 0-2.734.536Z" fill="url(#dc-SidebarServiceRsyaNewYearTypeDesktopBadgeNo-j)"/><path d="M52.853 29.155a1.97 1.97 0 0 0-1.208-3.75l-29.49 9.506a1.97 1.97 0 0 0 1.209 3.75l29.49-9.506Z" fill="url(#dc-SidebarServiceRsyaNewYearTypeDesktopBadgeNo-k)"/><path d="M41.214 18.411a1.97 1.97 0 0 0-2.71.643L20.967 47.49a1.97 1.97 0 1 0 3.353 2.068l17.535-28.436a1.97 1.97 0 0 0-.642-2.71Z" fill="url(#dc-SidebarServiceRsyaNewYearTypeDesktopBadgeNo-l)"/><path d="M17.6 40.891a1.97 1.97 0 0 0 1.749 2.169l26.998 2.898a1.97 1.97 0 0 0 .42-3.917L19.77 39.143a1.97 1.97 0 0 0-2.168 1.748Z" fill="url(#dc-SidebarServiceRsyaNewYearTypeDesktopBadgeNo-m)"/><path d="M41.568 49.59a1.97 1.97 0 0 0 1.97-1.97V19.57a1.97 1.97 0 0 0-3.94 0v28.05a1.97 1.97 0 0 0 1.97 1.97Z" fill="url(#dc-SidebarServiceRsyaNewYearTypeDesktopBadgeNo-n)"/><path d="M13.097 21.434a1.97 1.97 0 0 0 .536 2.734L48.793 47.8a1.97 1.97 0 0 0 2.198-3.27L15.83 20.899a1.97 1.97 0 0 0-2.734.536Z" fill="url(#dc-SidebarServiceRsyaNewYearTypeDesktopBadgeNo-o)"/></g></g><path d="M54.332 25.933V43.81h3.112v-6.38h1.518c4.064 0 6.662-1.877 6.662-5.838 0-3.601-2.418-5.659-6.636-5.659h-4.656Zm4.656 9.08h-1.544v-6.662h1.647c2.186 0 3.37 1.003 3.37 3.24 0 2.342-1.313 3.422-3.473 3.422Zm18.083 7.922V40.44c-.952.643-2.547 1.21-4.038 1.21-2.238 0-3.087-1.055-3.216-3.216H77.2v-1.62c0-4.502-1.981-6.2-5.042-6.2-3.73 0-5.505 2.856-5.505 6.765 0 4.502 2.213 6.688 6.122 6.688 1.955 0 3.396-.514 4.296-1.132Zm-4.965-9.903c1.518 0 1.981 1.26 1.981 2.881v.258h-4.27c.077-2.058.823-3.139 2.29-3.139ZM86.838 43.81h3.473l-4.913-6.868 4.321-6.07h-3.087l-4.32 6.07v-6.07H79.25V43.81h3.061v-6.25l4.527 6.25Zm3.616-2.65v2.65s.49.257 1.21.257c2.623 0 3.292-1.852 3.446-6.147l.18-4.63h3.113v10.52h3.06V30.872h-8.77l-.258 6.919c-.103 2.752-.283 3.601-1.286 3.601-.437 0-.695-.232-.695-.232Zm23.26-6.173c0-3.138-1.594-4.321-4.835-4.321-2.033 0-3.627.643-4.553 1.183v2.547c.823-.618 2.623-1.287 4.192-1.287 1.467 0 2.135.515 2.135 1.904v.72h-.488c-4.682 0-6.765 1.544-6.765 4.167 0 2.624 1.595 4.09 3.961 4.09 1.8 0 2.572-.592 3.164-1.209h.128c.026.334.129.772.232 1.029h2.984a32.53 32.53 0 0 1-.155-3.164v-5.659Zm-3.061 5.736c-.385.566-1.106 1.03-2.186 1.03-1.286 0-1.929-.721-1.929-1.827 0-1.466 1.054-2.006 3.678-2.006h.437v2.803Zm16.557 3.087h2.984l-.051-12.938h-4.193l-2.804 8.617-2.521-8.617h-4.45V43.81h2.598v-9.672l2.804 9.672h2.495l3.138-9.672v9.672Zm12.695-12.938v5.118h-4.09v-5.118h-3.061V43.81h3.061v-5.402h4.09v5.402h3.061V30.872h-3.061Zm15.306 4.115c0-3.138-1.595-4.321-4.836-4.321-2.032 0-3.626.643-4.552 1.183v2.547c.823-.618 2.623-1.287 4.192-1.287 1.467 0 2.135.515 2.135 1.904v.72h-.488c-4.682 0-6.765 1.544-6.765 4.167 0 2.624 1.594 4.09 3.961 4.09 1.8 0 2.572-.592 3.164-1.209h.128c.026.334.129.772.232 1.029h2.984a32.53 32.53 0 0 1-.155-3.164v-5.659Zm-3.061 5.736c-.386.566-1.106 1.03-2.186 1.03-1.286 0-1.929-.721-1.929-1.827 0-1.466 1.054-2.006 3.678-2.006h.437v2.803Zm4.622 3.087h3.138l2.469-4.218h1.466v4.218h3.061V30.872h-4.681c-2.984 0-5.119 1.517-5.119 4.295 0 1.955.926 3.19 2.573 3.756l-2.907 4.887Zm5.685-10.52h1.388v4.064h-1.466c-1.389 0-2.16-.592-2.16-2.084 0-1.415.9-1.98 2.238-1.98Zm17.727 10.777c1.414 0 2.418-.257 3.164-.797v-2.495c-.772.54-1.698.874-2.984.874-2.187 0-3.087-1.697-3.087-4.373 0-2.803 1.106-4.244 3.113-4.244 1.183 0 2.34.412 2.958.798v-2.598c-.644-.36-1.775-.617-3.293-.617-3.91 0-5.942 2.803-5.942 6.739 0 4.321 1.981 6.713 6.071 6.713Zm14.62-1.132V40.44c-.951.643-2.546 1.21-4.038 1.21-2.238 0-3.087-1.055-3.215-3.216h7.382v-1.62c0-4.502-1.981-6.2-5.042-6.2-3.729 0-5.504 2.856-5.504 6.765 0 4.502 2.212 6.688 6.122 6.688 1.955 0 3.395-.514 4.295-1.132Zm-4.964-9.903c1.518 0 1.981 1.26 1.981 2.881v.258h-4.27c.077-2.058.823-3.139 2.289-3.139Zm15.983.258v-2.418h-10.264v2.418h3.602v10.52h3.061V33.29h3.601Zm1.81-2.418V43.81h4.605c3.035 0 5.195-1.543 5.195-4.579 0-2.88-1.929-4.398-5.144-4.398h-1.595v-3.961h-3.061Zm4.424 10.52h-1.363v-4.141h1.441c1.337 0 2.135.591 2.135 2.083 0 1.492-.875 2.058-2.213 2.058Z" fill="#1B202B"/><mask id="dc-SidebarServiceRsyaNewYearTypeDesktopBadgeNo-p" style="mask-type:luminance" maskUnits="userSpaceOnUse" x="0" y="0" width="240" height="64"><path d="M240 0H0v63.53h240V0Z" fill="#fff"/></mask><g mask="url(#dc-SidebarServiceRsyaNewYearTypeDesktopBadgeNo-p)"><path d="M30 11.851c14.028-3.006 36.761-4.892 47.716 3.716 6.738 5.295-1.31 10.879-4.551 3.2-1.301-3.082-2.062-17.006 16.642-13.761 2.577.447 5.956 1.62 10.248 3.825 6.571 3.377 13.566 8.166 25.681 8.166C145.765 16.997 150.14 1 143 1c-7.141 0-6.656 12.163-3.164 15.997 3.491 3.834 9.444 9.82 32.051-2.716 22.605-12.537 35.142-13.153 40.074-6.577 4.932 6.577 2.926 18.653-1.717 17.543-4.364-1.043-1.382-10.266 11.648-12.833C232.317 10.36 238.097 6.042 241.141-1" stroke="url(#dc-SidebarServiceRsyaNewYearTypeDesktopBadgeNo-q)" stroke-width="1.807" stroke-miterlimit="10"/><path d="M49.722 2.314c0-.467-.6-.846-1.342-.846-.74 0-1.34.379-1.34.846 0 .467.6.846 1.34.846.741 0 1.342-.379 1.342-.846ZM53.7 9.963c-.119.452.366.97 1.083 1.158.717.187 1.394-.028 1.512-.48.118-.452-.367-.97-1.084-1.157-.717-.187-1.394.027-1.512.48Z" fill="#1C142D"/><path d="M56.337 10.88a4.562 4.562 0 1 0-4.982 7.643 4.562 4.562 0 0 0 4.982-7.643Z" fill="url(#dc-SidebarServiceRsyaNewYearTypeDesktopBadgeNo-r)"/><path d="M78.53 4.354c-.197-.423-.9-.513-1.572-.2-.672.312-1.057.909-.86 1.333.198.423.902.513 1.573.2.672-.312 1.057-.909.86-1.333Z" fill="#1C142D"/><path d="M75.913 5.33a4.562 4.562 0 1 0-1.033-9.064 4.562 4.562 0 0 0 1.033 9.065Z" fill="url(#dc-SidebarServiceRsyaNewYearTypeDesktopBadgeNo-s)"/><path d="M95.837 7.856c-.194.426.196 1.02.87 1.326.675.307 1.378.21 1.572-.215.193-.425-.197-1.018-.871-1.325-.674-.307-1.378-.21-1.571.214Z" fill="#1C142D"/><path d="M98.282 9.21a4.562 4.562 0 1 0-6.213 6.68 4.562 4.562 0 0 0 6.213-6.68Z" fill="url(#dc-SidebarServiceRsyaNewYearTypeDesktopBadgeNo-t)"/><path d="M118.304 15.733c.027-.466-.551-.879-1.291-.92-.739-.043-1.36.3-1.387.767-.027.466.551.879 1.291.921.739.043 1.36-.301 1.387-.768Z" fill="#1C142D"/><path d="M115.534 15.355a4.56 4.56 0 0 0 5.926-2.548 4.561 4.561 0 1 0-5.926 2.548Z" fill="url(#dc-SidebarServiceRsyaNewYearTypeDesktopBadgeNo-u)"/><path d="M141.773 19.906c-.211.416.152 1.026.811 1.363.66.336 1.367.271 1.58-.145.212-.416-.151-1.026-.811-1.363-.661-.336-1.368-.271-1.58.145Z" fill="#1C142D"/><path d="M144.157 21.366a4.561 4.561 0 1 0-.052 6.451 4.56 4.56 0 0 0 .052-6.451Z" fill="url(#dc-SidebarServiceRsyaNewYearTypeDesktopBadgeNo-v)"/><path d="M161.443 17.681c-.142-.445-.829-.622-1.535-.395-.706.227-1.161.771-1.019 1.216.144.445.831.622 1.537.395.705-.227 1.161-.771 1.017-1.216Z" fill="#1C142D"/><path d="M158.723 18.325a4.562 4.562 0 1 0 .1-9.124 4.562 4.562 0 0 0-.1 9.124Z" fill="url(#dc-SidebarServiceRsyaNewYearTypeDesktopBadgeNo-w)"/><path d="M178.798 10.65c.19.427.893.528 1.569.226.677-.302 1.071-.892.881-1.319-.191-.427-.893-.528-1.57-.226-.677.302-1.071.892-.88 1.319Z" fill="#1C142D"/><path d="M181.433 9.715a4.56 4.56 0 0 0-4.096 4.984 4.561 4.561 0 1 0 9.08-.887 4.562 4.562 0 0 0-4.984-4.097Z" fill="url(#dc-SidebarServiceRsyaNewYearTypeDesktopBadgeNo-x)"/><path d="M201.612 2.305c-.093-.458-.757-.71-1.483-.562-.725.147-1.239.638-1.145 1.096.092.458.757.71 1.482.562.726-.148 1.239-.638 1.146-1.096Z" fill="#1C142D"/><path d="M198.841 2.645a4.562 4.562 0 1 0 1.108-9.057 4.562 4.562 0 0 0-1.108 9.057Z" fill="url(#dc-SidebarServiceRsyaNewYearTypeDesktopBadgeNo-y)"/><path d="M212.334 11.597c.137.447.821.634 1.531.418.708-.216 1.172-.754 1.036-1.2-.137-.447-.822-.634-1.531-.418-.708.216-1.171.753-1.036 1.2Z" fill="#1C142D"/><path d="M215.062 10.994a4.563 4.563 0 1 0-.237 9.123 4.563 4.563 0 0 0 .237-9.123Z" fill="url(#dc-SidebarServiceRsyaNewYearTypeDesktopBadgeNo-z)"/><path d="M39.775-3c-.932 2.013-3.138 8.5-3.138 18.857v2.829" stroke="url(#dc-SidebarServiceRsyaNewYearTypeDesktopBadgeNo-A)" stroke-width="1.621" stroke-miterlimit="10"/><path d="M36.664 24.224a3.466 3.466 0 1 1 3.465-3.465 3.473 3.473 0 0 1-3.465 3.465Zm0-5.366a1.932 1.932 0 1 0 1.932 1.932 1.933 1.933 0 0 0-1.932-1.963v.03Z" fill="url(#dc-SidebarServiceRsyaNewYearTypeDesktopBadgeNo-B)"/><path d="M42.347 25.231a1.312 1.312 0 0 1-.452-.084l-1.096-.452a1.203 1.203 0 0 0-.882 0l-1.004.39a1.213 1.213 0 0 1-.766 0l-1.173-.383a1.173 1.173 0 0 0-.767 0l-1.188.399c-.232.073-.48.073-.713 0l-1.211-.353a1.196 1.196 0 0 0-.713 0l-1.142.383c-.124.04-.253.06-.383.062h-.077a1.189 1.189 0 0 1-1.188-1.196 2.706 2.706 0 0 1 2.706-2.706h8.532a2.706 2.706 0 0 1 2.706 2.706 1.188 1.188 0 0 1-1.189 1.234Z" fill="#1C142D"/><path d="M42.348 24.948c-.155 0-.31-.032-.452-.092l-1.097-.445a1.203 1.203 0 0 0-.881 0l-1.004.391c-.25.08-.518.08-.767 0l-1.173-.383a1.174 1.174 0 0 0-.766 0l-1.188.39c-.233.074-.481.074-.714 0l-1.195-.352a1.194 1.194 0 0 0-.713 0l-1.142.383c-.124.04-.254.06-.384.062h-.076a1.188 1.188 0 0 1-1.189-1.196A2.706 2.706 0 0 1 32.313 21h8.532a2.706 2.706 0 0 1 2.706 2.706 1.186 1.186 0 0 1-1.203 1.242Z" fill="url(#dc-SidebarServiceRsyaNewYearTypeDesktopBadgeNo-C)"/><path d="M43.409 28.171a10.779 10.779 0 0 1 3.196 7.942.767.767 0 0 1-1.533 0 13.376 13.376 0 0 0-2.17-7.474c-.268-.322.215-.767.507-.468Z" fill="#fff"/><path d="M233.125 53.716a4.645 4.645 0 0 1-4.972 2.52c-3.323-.758-2.565-6.726-.733-6.296 1.833.429.03 5.451-3.779 4.638a5.976 5.976 0 0 1-4.602-5.15 5.95 5.95 0 0 1 .223-2.428" stroke="url(#dc-SidebarServiceRsyaNewYearTypeDesktopBadgeNo-D)" stroke-width="1.581" stroke-linecap="round" stroke-linejoin="round"/><path d="M188.105 23.083a3.184 3.184 0 0 0 3.401 1.724c2.273-.518 1.754-4.6.501-4.307-1.253.294-.02 3.729 2.585 3.172a4.083 4.083 0 0 0 2.625-1.939 4.081 4.081 0 0 0 .37-3.243" stroke="url(#dc-SidebarServiceRsyaNewYearTypeDesktopBadgeNo-E)" stroke-width="1.807" stroke-linecap="round" stroke-linejoin="round"/><mask id="dc-SidebarServiceRsyaNewYearTypeDesktopBadgeNo-F" style="mask-type:luminance" maskUnits="userSpaceOnUse" x="-27" y="-47" width="116" height="87"><path d="M88.73-33.728-18.201-46.493l-8.78 73.548 106.93 12.766 8.78-73.549Z" fill="#fff"/></mask><g mask="url(#dc-SidebarServiceRsyaNewYearTypeDesktopBadgeNo-F)"><path d="M21.576 4.166c2.103-5.272 3.14-9.812 2.315-10.141-.824-.33-3.197 3.678-5.3 8.95-2.103 5.272-3.14 9.812-2.316 10.14.825.33 3.198-3.678 5.3-8.95ZM28.502 1.64c1.931-5.337 2.82-9.908 1.985-10.21-.834-.302-3.076 3.78-5.007 9.117-1.93 5.337-2.82 9.909-1.985 10.21.835.303 3.076-3.78 5.007-9.117Z" fill="#56B768"/><path d="M48.906-6.345c2.871-4.896 4.578-9.23 3.813-9.678-.766-.449-3.714 3.156-6.585 8.052-2.871 4.896-4.578 9.23-3.812 9.678.765.45 3.713-3.156 6.584-8.052ZM15.207 7.994c3.157-4.717 5.12-8.94 4.382-9.434-.738-.494-3.895 2.93-7.052 7.646-3.158 4.717-5.12 8.94-4.382 9.434.738.494 3.895-2.93 7.052-7.646ZM3.985 10.043C6.998 5.234 8.83.953 8.078.482 7.326.01 4.274 3.527 1.262 8.338c-3.013 4.81-4.845 9.091-4.093 9.562.752.471 3.804-3.046 6.816-7.856Z" fill="#38A047"/><path d="M-1.098 13.829c4.84-2.965 8.388-5.981 7.925-6.738-.464-.757-4.763 1.033-9.603 3.997s-8.389 5.98-7.925 6.737c.463.757 4.762-1.032 9.603-3.996ZM46.359-6.006c2.712-4.986 4.28-9.371 3.5-9.795-.78-.424-3.61 3.274-6.323 8.26-2.712 4.985-4.28 9.37-3.5 9.795.78.424 3.61-3.274 6.323-8.26Z" fill="#56B768"/><path d="M8.01 19.726c5.66.422 10.302.047 10.368-.838.067-.885-4.468-1.944-10.128-2.367-5.66-.422-10.302-.047-10.368.838-.066.885 4.468 1.945 10.128 2.367Z" fill="#38A047"/><path d="M17.415 25.266c.334-.822-3.659-3.22-8.917-5.354-5.26-2.136-9.793-3.2-10.127-2.378-.334.822 3.659 3.22 8.918 5.355 5.258 2.135 9.792 3.2 10.126 2.377ZM17.438 18.623c5.66.423 10.31-.072 10.388-1.105.077-1.032-4.449-2.211-10.109-2.634-5.66-.422-10.31.072-10.388 1.105-.077 1.032 4.449 2.212 10.109 2.634Z" fill="#56B768"/><path d="M26.51 15.146c5.66.422 10.302.047 10.369-.837.066-.885-4.47-1.945-10.13-2.368-5.66-.422-10.301-.047-10.367.838-.067.885 4.468 1.945 10.128 2.367Z" fill="#38A047"/><path d="M-23.362 18.024a1.085 1.085 0 0 1-.52-.465 1.12 1.12 0 0 1-.136-.693c.08-.271.264-.5.51-.635.245-.135.533-.166.8-.085a66.648 66.648 0 0 0 27.884-.413c15.76-3.108 40.264-12.353 67.528-38.9a1.014 1.014 0 0 1 .754-.22.999.999 0 0 1 .681.39 1.067 1.067 0 0 1 .301.76 1.09 1.09 0 0 1-.316.756C46.497 5.057 21.498 14.58 5.435 17.72a66.518 66.518 0 0 1-28.703.35l-.094-.045Z" fill="#713616"/><path d="M1.575 23.003c5.402 1.741 10.002 2.468 10.274 1.623.272-.845-3.886-2.94-9.288-4.681-5.403-1.741-10.003-2.468-10.275-1.623-.272.845 3.887 2.94 9.289 4.681ZM6.57 12.09c4.022-4.004 6.775-7.76 6.15-8.389-.627-.629-4.395 2.108-8.417 6.112-4.023 4.004-6.776 7.76-6.15 8.39.626.628 4.395-2.108 8.417-6.113ZM35.286 12.015c5.66.422 10.302.047 10.368-.838.066-.885-4.469-1.945-10.13-2.367-5.66-.422-10.301-.047-10.367.838-.066.885 4.469 1.944 10.129 2.367Z" fill="#38A047"/><path d="M43.278 16.067c.303-.951-3.837-3.118-9.245-4.838-5.41-1.721-10.039-2.345-10.342-1.393-.302.95 3.837 3.117 9.246 4.838 5.408 1.72 10.038 2.344 10.34 1.393Z" fill="#56B768"/><path d="M31.35 3.228c3.473-4.489 5.72-8.568 5.018-9.111-.702-.543-4.087 2.656-7.56 7.145-3.473 4.49-5.72 8.569-5.017 9.111.701.543 4.086-2.655 7.559-7.145ZM11.157 8.41C14.17 3.6 16.002-.682 15.25-1.153c-.752-.47-3.804 3.047-6.816 7.857-3.013 4.81-4.845 9.092-4.093 9.563.752.471 3.804-3.046 6.816-7.857Z" fill="#56B768"/><path d="M13.582 10.383c4.115-3.91 6.954-7.601 6.343-8.244-.611-.644-4.442 2.005-8.556 5.915-4.115 3.91-6.954 7.6-6.343 8.244.611.643 4.442-2.005 8.556-5.915Z" fill="#56B768"/><path d="M17.618 10.19c4.45-3.522 7.611-6.941 7.06-7.637-.55-.696-4.604 1.595-9.055 5.118-4.45 3.522-7.611 6.942-7.06 7.638.55.696 4.604-1.596 9.055-5.118Z" fill="#38A047"/><path d="M25.768 4.681c2.917-4.869 4.665-9.185 3.904-9.641-.762-.456-3.743 3.12-6.66 7.99-2.918 4.868-4.665 9.185-3.904 9.641.761.456 3.743-3.121 6.66-7.99ZM42.745-4.583c2.104-5.272 3.14-9.812 2.316-10.141-.824-.329-3.197 3.678-5.3 8.95-2.103 5.272-3.14 9.812-2.316 10.14.825.33 3.198-3.677 5.3-8.95ZM35.815-.515c2.412-5.138 3.716-9.609 2.913-9.986-.804-.377-3.41 3.482-5.822 8.62-2.412 5.138-3.716 9.609-2.913 9.986.803.377 3.41-3.482 5.822-8.62Z" fill="#38A047"/><path d="M41.077 7.807c5.667-.326 10.219-1.309 10.168-2.194-.051-.886-4.686-1.34-10.352-1.015-5.667.326-10.219 1.309-10.168 2.195.051.886 4.686 1.34 10.352 1.014Z" fill="#38A047"/><path d="M51.119 12.053c.223-.859-4.05-2.71-9.545-4.135-5.494-1.425-10.128-1.883-10.35-1.024-.224.859 4.05 2.71 9.544 4.135 5.494 1.424 10.128 1.883 10.35 1.024Z" fill="#56B768"/><path d="M38.15 1.709c3.869-4.153 6.48-8.01 5.83-8.614-.649-.605-4.312 2.27-8.181 6.423-3.87 4.152-6.48 8.01-5.83 8.614.648.605 4.311-2.27 8.18-6.423Z" fill="#56B768"/><path d="M53.05-.118c5.43-1.656 9.62-3.686 9.361-4.535-.258-.849-4.87-.195-10.298 1.461-5.43 1.656-9.62 3.687-9.361 4.535.258.85 4.87.195 10.298-1.46Z" fill="#38A047"/><path d="M51.142 3.427c4.861.073 8.812-.483 8.823-1.243.012-.76-3.92-1.436-8.781-1.51-4.861-.073-8.811.483-8.823 1.243-.011.76 3.92 1.436 8.781 1.51Z" fill="#56B768"/><path d="M35.91 20.7c.333-.822-3.66-3.22-8.918-5.355-5.26-2.135-9.793-3.2-10.127-2.377-.334.822 3.659 3.22 8.918 5.355 5.259 2.135 9.792 3.2 10.126 2.377Z" fill="#38A047"/><path d="M26.855 24.156c.333-.822-3.66-3.22-8.918-5.355-5.259-2.135-9.793-3.2-10.126-2.377-.334.822 3.658 3.22 8.917 5.355 5.259 2.135 9.793 3.199 10.127 2.377Z" fill="#56B768"/></g><path d="m28.164 40.481-1.092.243.726 3.265 1.092-.243-.726-3.265ZM23.827 42.99l-.6.944 2.822 1.795.6-.944-2.822-1.795ZM25.806 47.106l-3.265.727.243 1.092 3.265-.727-.243-1.092ZM26.846 49.328 25.05 52.15l.944.6 1.794-2.821-.943-.6ZM30.256 49.935l-1.092.243.726 3.265 1.092-.243-.726-3.265ZM31.991 48.185l-.6.944 2.822 1.794.6-.943-2.822-1.795ZM35.259 44.991l-3.265.726.243 1.092 3.265-.726-.243-1.092ZM32.049 41.17l-1.795 2.822.944.6 1.795-2.822-.944-.6Z" fill="#FFC645"/></g><defs><linearGradient id="dc-SidebarServiceRsyaNewYearTypeDesktopBadgeNo-b" x1="46.601" y1="42.299" x2="19.101" y2="14.899" gradientUnits="userSpaceOnUse"><stop stop-color="#4643B9"/><stop offset="1" stop-color="#1E8AFF"/></linearGradient><linearGradient id="dc-SidebarServiceRsyaNewYearTypeDesktopBadgeNo-d" x1="56.998" y1="43.899" x2="-20.102" y2="-27.101" gradientUnits="userSpaceOnUse"><stop stop-color="#3E3BA0"/><stop offset=".469" stop-color="#498BFF"/><stop offset=".849" stop-color="#00B2FF"/></linearGradient><linearGradient id="dc-SidebarServiceRsyaNewYearTypeDesktopBadgeNo-e" x1="47.998" y1="24.899" x2="1.598" y2="62.599" gradientUnits="userSpaceOnUse"><stop stop-color="#4643B9"/><stop offset="1" stop-color="#1B202B"/></linearGradient><linearGradient id="dc-SidebarServiceRsyaNewYearTypeDesktopBadgeNo-f" x1="81.498" y1="14.799" x2="3.621" y2="52.528" gradientUnits="userSpaceOnUse"><stop stop-color="#FFEC42"/><stop offset="1" stop-color="#FFB800"/></linearGradient><linearGradient id="dc-SidebarServiceRsyaNewYearTypeDesktopBadgeNo-g" x1="-.143" y1="74.721" x2="-11.864" y2="54.777" gradientUnits="userSpaceOnUse"><stop stop-color="#3E3BA0"/><stop offset=".469" stop-color="#498BFF"/><stop offset="1" stop-color="#00B2FF"/></linearGradient><linearGradient id="dc-SidebarServiceRsyaNewYearTypeDesktopBadgeNo-h" x1="66.292" y1="42.651" x2="21.786" y2="42.95" gradientUnits="userSpaceOnUse"><stop stop-color="#3E3BA0"/><stop offset=".266" stop-color="#498BFF"/><stop offset=".849" stop-color="#00B2FF"/></linearGradient><linearGradient id="dc-SidebarServiceRsyaNewYearTypeDesktopBadgeNo-i" x1="40.38" y1="21.799" x2="57.748" y2="43.2" gradientUnits="userSpaceOnUse"><stop stop-color="#FFEC42"/><stop offset="1" stop-color="#FFB800"/></linearGradient><linearGradient id="dc-SidebarServiceRsyaNewYearTypeDesktopBadgeNo-j" x1="49.111" y1="47.519" x2="11.238" y2="12.682" gradientUnits="userSpaceOnUse"><stop stop-color="#FFEC42"/><stop offset="1" stop-color="#FFB800"/></linearGradient><linearGradient id="dc-SidebarServiceRsyaNewYearTypeDesktopBadgeNo-k" x1="81.498" y1="14.799" x2="3.621" y2="52.528" gradientUnits="userSpaceOnUse"><stop stop-color="#FFEC42"/><stop offset="1" stop-color="#FFB800"/></linearGradient><linearGradient id="dc-SidebarServiceRsyaNewYearTypeDesktopBadgeNo-l" x1="26.797" y1="44.699" x2="41.882" y2="16.903" gradientUnits="userSpaceOnUse"><stop stop-color="#515BFF"/><stop offset="1" stop-color="#498BFF"/></linearGradient><linearGradient id="dc-SidebarServiceRsyaNewYearTypeDesktopBadgeNo-m" x1="45.398" y1="43.899" x2="19.247" y2="39.288" gradientUnits="userSpaceOnUse"><stop stop-color="#515BFF"/><stop offset="1" stop-color="#498BFF"/></linearGradient><linearGradient id="dc-SidebarServiceRsyaNewYearTypeDesktopBadgeNo-n" x1="40.38" y1="21.799" x2="57.748" y2="43.2" gradientUnits="userSpaceOnUse"><stop stop-color="#FFEC42"/><stop offset="1" stop-color="#FFB800"/></linearGradient><linearGradient id="dc-SidebarServiceRsyaNewYearTypeDesktopBadgeNo-o" x1="49.111" y1="47.519" x2="11.238" y2="12.682" gradientUnits="userSpaceOnUse"><stop stop-color="#FFEC42"/><stop offset="1" stop-color="#FFB800"/></linearGradient><linearGradient id="dc-SidebarServiceRsyaNewYearTypeDesktopBadgeNo-q" x1="50.792" y1="8.047" x2="290.553" y2="28.968" gradientUnits="userSpaceOnUse"><stop stop-color="#7E99FF"/><stop offset="1" stop-color="#005AFF"/></linearGradient><linearGradient id="dc-SidebarServiceRsyaNewYearTypeDesktopBadgeNo-r" x1="58.171" y1="14.745" x2="49.05" y2="14.562" gradientUnits="userSpaceOnUse"><stop stop-color="#FF7363"/><stop offset="1" stop-color="#FE3324"/></linearGradient><linearGradient id="dc-SidebarServiceRsyaNewYearTypeDesktopBadgeNo-s" x1="70.864" y1="1.315" x2="79.929" y2=".282" gradientUnits="userSpaceOnUse"><stop stop-color="#7E99FF"/><stop offset="1" stop-color="#005AFF"/></linearGradient><linearGradient id="dc-SidebarServiceRsyaNewYearTypeDesktopBadgeNo-t" x1="91.796" y1="9.482" x2="98.537" y2="15.63" gradientUnits="userSpaceOnUse"><stop stop-color="#FFEC42"/><stop offset="1" stop-color="#FFB800"/></linearGradient><linearGradient id="dc-SidebarServiceRsyaNewYearTypeDesktopBadgeNo-u" x1="112.986" y1="9.428" x2="121.46" y2="12.807" gradientUnits="userSpaceOnUse"><stop stop-color="#7E99FF"/><stop offset="1" stop-color="#005AFF"/></linearGradient><linearGradient id="dc-SidebarServiceRsyaNewYearTypeDesktopBadgeNo-v" x1="145.121" y1="25.535" x2="136.252" y2="23.402" gradientUnits="userSpaceOnUse"><stop stop-color="#FF7363"/><stop offset="1" stop-color="#FE3324"/></linearGradient><linearGradient id="dc-SidebarServiceRsyaNewYearTypeDesktopBadgeNo-w" x1="163.338" y1="13.76" x2="154.214" y2="13.746" gradientUnits="userSpaceOnUse"><stop stop-color="#FFEC42"/><stop offset="1" stop-color="#FFB800"/></linearGradient><linearGradient id="dc-SidebarServiceRsyaNewYearTypeDesktopBadgeNo-x" x1="186.417" y1="13.812" x2="177.337" y2="14.699" gradientUnits="userSpaceOnUse"><stop stop-color="#7E99FF"/><stop offset="1" stop-color="#005AFF"/></linearGradient><linearGradient id="dc-SidebarServiceRsyaNewYearTypeDesktopBadgeNo-y" x1="195.492" y1="-.018" x2="203.762" y2="-3.869" gradientUnits="userSpaceOnUse"><stop stop-color="#FF7363"/><stop offset="1" stop-color="#FE3324"/></linearGradient><linearGradient id="dc-SidebarServiceRsyaNewYearTypeDesktopBadgeNo-z" x1="210.379" y1="15.49" x2="219.501" y2="15.64" gradientUnits="userSpaceOnUse"><stop stop-color="#FFEC42"/><stop offset="1" stop-color="#FFB800"/></linearGradient><linearGradient id="dc-SidebarServiceRsyaNewYearTypeDesktopBadgeNo-A" x1="38.446" y1="14.009" x2="36.231" y2="14.009" gradientUnits="userSpaceOnUse"><stop stop-color="#7E99FF"/><stop offset="1" stop-color="#005AFF"/></linearGradient><linearGradient id="dc-SidebarServiceRsyaNewYearTypeDesktopBadgeNo-B" x1="39.217" y1="15.577" x2="35.867" y2="22.376" gradientUnits="userSpaceOnUse"><stop stop-color="#7E99FF"/><stop offset="1" stop-color="#005AFF"/></linearGradient><linearGradient id="dc-SidebarServiceRsyaNewYearTypeDesktopBadgeNo-C" x1="38.538" y1="18.869" x2="36.537" y2="23.668" gradientUnits="userSpaceOnUse"><stop stop-color="#7E99FF"/><stop offset="1" stop-color="#005AFF"/></linearGradient><linearGradient id="dc-SidebarServiceRsyaNewYearTypeDesktopBadgeNo-D" x1="233.825" y1="53.973" x2="217.716" y2="50.251" gradientUnits="userSpaceOnUse"><stop stop-color="#FFEC42"/><stop offset="1" stop-color="#FFB800"/></linearGradient><linearGradient id="dc-SidebarServiceRsyaNewYearTypeDesktopBadgeNo-E" x1="187.627" y1="23.259" x2="198.645" y2="20.713" gradientUnits="userSpaceOnUse"><stop stop-color="#FFEC42"/><stop offset="1" stop-color="#FFB800"/></linearGradient></defs></svg>