<svg width="22" height="22" viewBox="0 0 22 22" fill="none" xmlns="http://www.w3.org/2000/svg">
<path fill-rule="evenodd" clip-rule="evenodd" d="M17 2H5C3.34315 2 2 3.34315 2 5V17C2 18.6569 3.34315 20 5 20H17C18.6569 20 20 18.6569 20 17V5C20 3.34315 18.6569 2 17 2ZM5 0C2.23858 0 0 2.23858 0 5V17C0 19.7614 2.23858 22 5 22H17C19.7614 22 22 19.7614 22 17V5C22 2.23858 19.7614 0 17 0H5Z" fill="#475A80"/>
<path d="M4.38477 7.12402H9.63177V8.43302H5.95777V10.27H9.05977V11.579H5.95777V13.691H9.68677V15H4.38477V7.12402Z" fill="#475A80"/>
<path d="M11.0557 7.12402H13.0687L16.2257 12.976V7.12402H17.6337V15H15.6427L12.4527 9.07102V15H11.0557V7.12402Z" fill="#475A80"/>
</svg>
